<svg width="240" height="240" viewBox="0 0 240 240" fill="none" xmlns="http://www.w3.org/2000/svg">
<mask id="mask0" mask-type="alpha" maskUnits="userSpaceOnUse" x="0" y="0" width="240" height="240">
<path d="M120 240C186.274 240 240 186.274 240 120C240 53.7258 186.274 0 120 0C53.7258 0 0 53.7258 0 120C0 186.274 53.7258 240 120 240Z" fill="#A86252"/>
</mask>
<g mask="url(#mask0)">
<path d="M464.869 -144H-224.805V385.324H464.869V-144Z" fill="white"/>
<path d="M464.869 103.63L-224.805 183.978V-144H464.869V103.63Z" fill="#E3E2F7"/>
<path d="M134.087 127.956L12.1304 141.782V-129.196H134.087V127.956Z" fill="#F3F3FF"/>
<path d="M246.652 115.63L145.565 126.978V-129.196H246.652V115.63Z" fill="#F3F3FF"/>
<path d="M56.3478 136.565L22.0435 140.413L84.4565 -128.935H117.848L56.3478 136.565Z" fill="white"/>
<path d="M73.1086 134.739L61.1738 136.043L122.478 -128.935H134.152L73.1086 134.739Z" fill="white"/>
<path d="M178.891 123.261L145.565 126.978L198.065 -128.935H230.413L178.891 123.261Z" fill="white"/>
<path d="M195.065 121.5L183.521 122.739L234.913 -128.935H246.195L195.065 121.5Z" fill="white"/>
<path d="M210.913 138.391H209.152C209.533 125.148 208.704 111.897 206.674 98.8043C205.695 92.4782 204.391 85.7608 201.456 79.7608C198.521 73.7608 193.5 68.4782 188.021 66.2608L188.739 64.6304C194.608 67.0434 199.695 72.1304 203.021 78.9782C206.348 85.826 207.456 92.0217 208.435 98.5434C210.461 111.724 211.291 125.061 210.913 138.391Z" fill="#A2A6E2"/>
<path d="M224.217 31.5001C224.217 31.5001 214.63 33.587 216.391 26.4131C216.717 24.9783 217.826 23.3479 219.456 21.7175C221.087 20.087 223.239 20.4783 225.326 19.1088C227.413 17.7392 228.848 15.0653 231.13 14.087C233.413 13.1088 235.761 13.5001 238.239 12.8479C240.717 12.1957 242.674 10.5001 244.891 10.2392C248.518 9.87431 252.181 10.1391 255.717 11.0218C246.456 13.174 235.043 24.3262 224.217 31.5001Z" fill="#BEBAF7"/>
<path d="M228.195 31.2391C228.195 31.2391 219.587 39.3912 220.108 31.9564C220.304 29.5434 223.173 26.2173 227.217 22.8912C228.717 21.7825 231.195 22.0434 232.891 20.9347C234.586 19.826 235.369 17.3478 237.13 16.3695C238.891 15.3912 241.043 15.4565 242.869 14.6739C247.891 12.5217 252.521 10.3695 255.717 11.0217C246.978 14.6738 237.652 22.3695 228.195 31.2391Z" fill="#A2A6E2"/>
<path d="M235.5 64.5654C228.456 74.348 222.326 85.3698 219.847 93.3263C215.673 106.565 213.978 120.326 212.413 133.631L214.5 133.761C216.065 120.522 217.76 106.826 221.869 93.7828C224.282 86.022 230.282 75.2611 237.13 65.7394L235.5 64.5654Z" fill="#A2A6E2"/>
<path d="M211.565 138.196H213.717C214.239 120.261 214.826 101.739 212.869 83.6087C210.913 65.4783 201.13 37.4348 191.739 21.9783L189.978 23.3478C199.239 38.5435 208.956 66.8478 210.782 84C212.608 101.152 212.152 120.391 211.565 138.196Z" fill="#A2A6E2"/>
<path d="M235.173 73.8914C235.173 73.8914 222.652 70.5653 229.108 63.1958C230.217 61.8914 232.239 60.7175 234.782 59.8697C237.326 59.0219 240.782 59.6088 244.304 59.2827C246.652 59.0219 248.869 57.5871 251.478 57.6523C254.086 57.7175 258.065 59.2175 261.652 59.8697C264.13 60.3914 267 59.8045 269.413 60.5871C274.925 62.3138 280.014 65.1802 284.347 69.0001C272.282 65.9349 252.13 72.0653 235.173 73.8914Z" fill="#A2A6E2"/>
<path d="M239.934 75.9784C239.934 75.9784 224.934 80.348 230.087 72.0001C231.326 69.9132 234.652 68.8045 239.087 67.5001C240.782 66.9784 242.674 65.9349 244.63 65.5436C246.587 65.1523 249.521 66.0001 252 65.7393C254.478 65.4784 256.5 64.174 258.848 64.1088C261.195 64.0436 263.543 65.0219 265.891 65.1523C269.217 65.348 272.478 64.761 275.282 65.348C279.13 66.1306 282.261 67.3697 284.348 69.0001C271.891 68.0219 256.369 71.4132 239.934 75.9784Z" fill="#BEBAF7"/>
<path d="M214.239 137.283H212.152C212.087 121.37 211.956 104.935 213.652 88.8262C214.761 77.9349 216.587 68.6741 219.261 60.5871C222.587 50.4784 227.217 42.0001 233.413 34.6958L235.109 35.6741C220.891 52.6306 217.239 74.1523 215.739 88.9567C214.109 105.065 214.174 121.435 214.239 137.283Z" fill="#BEBAF7"/>
<path d="M213.391 138.326L211.239 138.196C213.141 106.533 213.315 74.7902 211.761 43.1086H213.913C215.432 74.8345 215.258 106.619 213.391 138.326Z" fill="#BEBAF7"/>
<path d="M209.022 138.913H206.869C206.609 119.544 206.348 99.5219 197.935 81.1306C193.396 71.3432 186.917 62.5792 178.891 55.3698L180.456 54.1306C188.644 61.58 195.272 70.5799 199.956 80.6089C208.435 99.2611 208.761 120.326 209.022 138.913Z" fill="#BEBAF7"/>
<path d="M209.739 140.152C204.847 120.457 192.456 102.131 174.717 88.5001L176.152 87.261C194.217 101.087 206.869 119.739 211.826 139.761L209.739 140.152Z" fill="#A2A6E2"/>
<path d="M215.543 140.348C214.5 121.109 225 101.413 242.935 89.022L244.304 90.3915C226.826 102.392 216.652 121.565 217.63 140.283L215.543 140.348Z" fill="#A2A6E2"/>
<path d="M233.021 34.1741C236.608 31.5654 227.673 24.7176 239.282 21.9785C240.978 21.5872 242.347 22.7611 244.043 22.9567C245.739 23.1524 247.304 22.3698 248.739 22.9567C250.173 23.5437 251.087 25.6959 252.587 26.7393C254.087 27.7828 256.956 28.3046 258.391 29.8698C259.826 31.435 260.282 33.3263 261.195 35.0872C262.108 36.848 264.065 39.1306 264.065 40.7611C264.065 42.3915 262.369 45.5872 261.652 48.1959C260.934 50.8046 261.456 53.0219 260.673 55.1089C259.173 58.9567 257.804 61.8915 257.804 61.8915C256.358 60.3276 254.764 58.9078 253.043 57.6524C251.673 56.6741 249.913 53.7393 247.891 52.5654C245.869 51.3915 243.847 52.1089 241.304 51.0002C238.76 49.8915 237.13 47.8046 234.26 46.8915C232.695 46.3698 229.891 46.9567 227.804 46.3045C225.717 45.6524 223.304 43.6306 220.826 42.6524C218.347 41.6741 215.543 41.4785 214.108 40.2393C212.673 39.0002 211.434 35.6741 215.413 32.8046C223.043 27.2611 229.434 36.848 233.021 34.1741Z" fill="#BEBAF7"/>
<path d="M232.565 34.5C236.837 36.0698 240.944 38.0577 244.826 40.4348C246.487 41.5517 248.077 42.7714 249.587 44.0869C250.845 45.2747 251.981 46.5856 252.978 48C254.456 50.0457 255.601 52.313 256.369 54.7174C256.499 55.0804 256.608 55.4505 256.695 55.8261C256.826 56.1521 256.891 56.4782 256.956 56.6739C257.021 56.8696 257.152 57.3913 257.217 57.3913C257.282 57.3913 257.282 57.1304 257.217 56.6087C257.196 56.3231 257.153 56.0396 257.087 55.7608C257.024 55.3645 256.937 54.9725 256.826 54.5869C256.761 54.3261 256.761 54.1304 256.695 53.8695C256.63 53.6087 256.5 53.3478 256.435 53.0869C256.369 52.8261 256.369 52.8261 256.304 52.6956C256.252 52.5461 256.208 52.3936 256.174 52.2391C256.043 51.9782 255.978 51.6522 255.848 51.3913C255.279 50.023 254.58 48.7126 253.761 47.4782C252.747 45.9779 251.589 44.58 250.304 43.3043C248.836 41.8542 247.219 40.5643 245.478 39.4565C241.772 37.0529 237.813 35.0628 233.674 33.5217C233.417 33.5688 233.179 33.6847 232.984 33.857C232.788 34.0294 232.644 34.2516 232.565 34.5Z" fill="#A2A6E2"/>
<path d="M180.847 59.2827C180.847 59.2827 192.195 56.0218 186.521 47.3479C185.478 45.7175 183.13 45.6522 180.652 44.4783C178.174 43.3044 177.065 41.4783 174.717 40.9566C172.369 40.4349 170.021 41.8696 167.478 41.7392C164.934 41.6088 162.587 40.0435 160.043 40.3044C157.5 40.5653 155.282 42.3914 153 43.0435C150.717 43.6957 148.565 43.2392 146.478 44.2827C142.805 46.0824 139.49 48.5354 136.695 51.5218C147.652 48.587 165.652 56.4131 180.847 59.2827Z" fill="#BEBAF7"/>
<path d="M176.543 61.4349C176.543 61.4349 188.869 67.3044 184.434 57.587C183.847 56.3479 183.782 54.8479 182.282 53.7392C180.782 52.6305 177.261 52.9566 174.717 51.9783C172.174 51.0001 168.456 48.1957 164.282 47.5436C160.108 46.8914 155.478 48.6523 151.434 48.8479C148.5 48.9784 145.826 47.4131 143.413 48.1305C140.945 48.7351 138.647 49.8949 136.695 51.5218C147.913 50.9349 161.804 55.4349 176.543 61.4349Z" fill="#A2A6E2"/>
<path d="M197.413 29.9349C198.586 31.3697 199.63 28.5001 203.413 21.7175C206.673 15.9783 215.086 17.6088 214.304 25.3697C214.239 26.674 213.26 27.6523 212.543 29.4131C211.826 31.174 210.13 34.6305 208.043 36.5218C205.956 38.4131 204.326 38.0218 202.108 39.1957C199.891 40.3696 198.717 41.8696 196.891 42.5218C195.065 43.174 193.434 42.5218 191.739 42.9131C190.043 43.3044 188.282 44.4783 186.586 44.7392C184.891 45.0001 183.717 44.3479 182.478 44.4783C181.239 44.6088 179.739 45.7175 178.695 45.7827C177.052 45.9522 175.392 45.7055 173.869 45.0653C174.132 43.186 174.241 41.2884 174.195 39.3914C174.195 37.8914 173.282 36.1957 173.543 34.4349C173.804 32.674 174.978 31.1088 175.63 29.3479C176.282 27.587 176.347 25.8914 177.26 24.4566C178.173 23.0218 180 22.3696 181.108 21.0653C182.217 19.761 183.13 17.5436 184.499 16.3696C185.869 15.1957 187.369 15.9131 188.413 15.2609C189.456 14.6088 190.434 12.7827 191.608 12.4566C192.782 12.1305 194.282 13.0436 195.456 13.0436C196.63 13.0436 199.108 12.1957 200.347 12.8479C203.478 14.5436 204.26 18.1305 203.152 21.3914C201.26 26.6088 196.173 28.5653 197.413 29.9349Z" fill="#BEBAF7"/>
<path d="M197.217 29.2827C185.804 36.5871 177.326 42.3262 177.456 42.5871C177.587 42.8479 186.326 37.5653 197.739 30.261C197.869 29.7392 197.739 29.3479 197.217 29.2827Z" fill="#A2A6E2"/>
<path d="M177.13 87.7175C173.413 85.3044 181.891 77.9349 170.087 75.9131C168.403 75.6091 166.676 75.6312 165 75.9783C162.782 76.4349 160.63 77.9349 158.609 79.174C156.587 80.4131 154.5 81.6522 152.804 83.4783C151.109 85.3044 150.848 87.1305 149.804 89.0218C148.761 90.9131 146.478 94.174 146.543 96.1957C146.609 98.2175 148.369 100.174 149.217 102.717C150.065 105.261 149.478 107.217 150.261 109.044C152.152 113.413 154.043 116.804 154.043 116.804C155.443 115.163 156.993 113.656 158.674 112.304C160.043 111.131 161.478 108.261 163.565 106.891C165.652 105.522 167.543 106.174 169.696 105.065C170.804 104.478 172.304 102.978 173.478 102.391C174.652 101.804 176.022 102.131 177.522 101.544C185.674 98.4131 205.826 92.3479 194.609 85.2392C186.652 80.2175 180.848 90.1957 177.13 87.7175Z" fill="#A2A6E2"/>
<path d="M177.587 87.9785C173.423 89.8295 169.448 92.0791 165.717 94.6959C164.103 95.8634 162.597 97.173 161.217 98.6089C160.014 99.8417 158.943 101.197 158.021 102.652C156.704 104.797 155.715 107.128 155.087 109.565C154.956 110.022 154.891 110.413 154.761 110.739C154.71 111.025 154.645 111.308 154.565 111.587C154.5 112.044 154.434 112.305 154.369 112.305C154.304 112.305 154.304 112.044 154.369 111.587C154.363 111.281 154.385 110.976 154.434 110.674C154.453 110.28 154.496 109.888 154.565 109.5C154.639 109.268 154.683 109.027 154.695 108.783L154.891 108C154.956 107.87 154.956 107.739 155.021 107.609C155.024 107.448 155.069 107.29 155.152 107.152C155.217 106.842 155.304 106.537 155.413 106.239C155.866 104.827 156.479 103.47 157.239 102.196C158.168 100.645 159.238 99.1822 160.434 97.8263C161.833 96.3259 163.361 94.9511 165 93.7176C168.579 91.0987 172.426 88.8687 176.478 87.0654C176.727 87.1068 176.96 87.213 177.155 87.3732C177.349 87.5335 177.498 87.7423 177.587 87.9785Z" fill="#BEBAF7"/>
<path d="M219.913 97.761C218.152 98.6741 218.022 95.935 216.065 89.2176C214.109 82.5002 204.978 82.8263 203.282 89.6089C203.022 90.7828 203.739 91.8915 203.935 93.5219C204.13 95.1524 204.782 98.6741 206.413 100.761C208.043 102.848 209.869 102.978 211.891 104.544C213.913 106.109 214.63 107.674 216.456 108.718C218.282 109.761 220.109 109.565 221.739 110.348C223.369 111.131 225 112.5 226.696 113.152C228.391 113.805 229.891 113.544 231.196 113.935C232.5 114.326 233.674 115.696 234.782 116.022C236.531 116.569 238.375 116.746 240.196 116.544C240.504 114.847 240.984 113.186 241.63 111.587C242.152 110.348 243.652 109.109 243.978 107.544C244.304 105.978 243.522 104.283 243.391 102.587C243.261 100.891 243.717 99.5219 243.196 98.0219C242.674 96.5219 240.978 95.5437 240.196 94.1741C239.413 92.8045 239.152 90.5871 238.043 89.2828C236.935 87.9784 235.174 88.1741 234.261 87.3915C233.348 86.6089 232.891 84.7176 231.782 84.1958C230.674 83.6741 228.717 84.0002 227.413 83.6741C226.109 83.348 223.826 82.0436 222.326 82.3045C218.413 83.0219 216.391 85.9567 216.587 88.9567C216.848 93.9132 221.674 96.848 219.913 97.761Z" fill="#A2A6E2"/>
<path d="M220.304 97.2391C230.152 106.37 237.391 113.348 237.13 113.609C236.869 113.87 229.304 107.087 219.456 97.9565C219.521 97.4348 219.782 97.1739 220.304 97.2391Z" fill="#BEBAF7"/>
<path d="M250.891 84.5219C248.934 84.3915 250.173 81.9785 251.934 75.1958C253.695 68.4132 245.608 64.0437 240.652 69.0654C239.804 69.9132 239.869 71.2828 239.217 72.7828C238.565 74.2828 237.326 77.6089 237.717 80.2828C238.108 82.9567 239.608 83.935 240.521 86.2828C241.434 88.6306 241.304 90.3915 242.347 92.1524C243.391 93.9132 245.086 94.8263 246.13 96.2611C247.173 97.6958 247.826 99.7828 248.934 101.218C250.043 102.652 251.478 103.109 252.391 104.152C253.304 105.196 253.695 106.957 254.478 107.805C255.685 109.158 257.177 110.228 258.847 110.935C259.988 109.658 261.255 108.5 262.63 107.478C263.739 106.631 265.63 106.305 266.673 105.065C267.717 103.826 267.978 102.065 268.63 100.565C269.282 99.0654 270.521 98.0871 270.847 96.5219C271.173 94.9567 270.195 93.2611 270.195 91.6306C270.195 90.0002 271.108 88.1089 270.782 86.348C270.456 84.5872 268.891 83.935 268.5 82.7611C268.108 81.5872 268.695 79.8263 267.978 78.7828C267.26 77.7393 265.434 77.0872 264.521 76.1741C263.608 75.2611 262.173 72.9132 260.739 72.3915C257.021 71.0219 253.826 72.5219 252.456 75.1958C250.173 79.6306 252.847 84.6524 250.891 84.5219Z" fill="#BEBAF7"/>
<path d="M216.195 79.9566C213.065 77.8044 210.065 79.6957 207.521 81.9131C205.5 83.8044 203.804 85.8914 202.63 86.1522H201.913C201.904 86.1522 201.896 86.1506 201.888 86.1473C201.88 86.144 201.873 86.1392 201.867 86.1331C201.86 86.1271 201.856 86.1199 201.852 86.112C201.849 86.1041 201.847 86.0956 201.847 86.087H201.782C201.782 86.0785 201.781 86.07 201.777 86.0621C201.774 86.0541 201.769 86.047 201.763 86.0409C201.757 86.0348 201.75 86.03 201.742 86.0268C201.734 86.0235 201.726 86.0218 201.717 86.0218H201.652V85.8914C201.586 85.3935 201.586 84.8892 201.652 84.3914C201.978 80.4131 203.934 72.9783 195.913 74.087C191.934 74.5435 189.847 78.1957 186.521 81.587C184.891 83.2175 183.13 84.3262 181.826 86.5435C180.521 88.7609 180.521 91.3044 179.673 94.0435C178.826 96.7827 177.521 98.8044 177.26 101.478C177 104.152 178.434 105.326 178.891 107.478C179.347 109.631 178.956 112.37 179.739 114.196C180.818 116.716 182.151 119.12 183.717 121.37L190.695 115.239C192.456 113.674 193.76 110.217 195.913 108.457C199.5 105.326 204.065 103.761 207.782 100.826C210 99.0653 210.521 96.8479 212.087 95.1522C214.695 92.3479 217.76 90.2609 218.478 87.9131C219.195 85.5653 218.673 81.7827 216.195 79.9566Z" fill="#BEBAF7"/>
<path d="M201.717 85.3045C199.814 86.7022 198.065 88.2981 196.5 90.0654L195.913 90.7176L195.326 91.3697C194.992 91.8336 194.621 92.2698 194.217 92.6741L193.239 94.0437L192.717 94.6958L192.261 95.4132C191.076 97.122 190.009 98.9086 189.065 100.761C188.242 102.352 187.502 103.985 186.847 105.652C186.723 106.033 186.571 106.403 186.391 106.761L186.065 107.87C185.804 108.522 185.608 109.239 185.413 109.826C185.217 110.413 185.087 111.065 184.956 111.587C184.826 112.109 184.695 112.631 184.63 113.087C184.556 113.297 184.512 113.517 184.5 113.739C184.45 113.909 184.428 114.085 184.434 114.261C184.368 114.562 184.324 114.867 184.304 115.174C184.267 115.412 184.245 115.651 184.239 115.891C184.304 115.957 184.369 115.696 184.565 115.239L184.761 114.391L184.956 113.805C184.968 113.603 185.012 113.405 185.087 113.218C185.217 112.761 185.413 112.305 185.543 111.783L186.13 110.087C186.326 109.435 186.587 108.783 186.847 108.131C186.949 107.773 187.08 107.424 187.239 107.087C187.369 106.696 187.565 106.37 187.695 105.978C188.347 104.478 189.13 102.913 190.043 101.218C191.019 99.4463 192.086 97.7267 193.239 96.0654C193.406 95.8591 193.559 95.6412 193.695 95.4132L194.217 94.7611L195.195 93.4567C195.587 93.0654 195.913 92.6089 196.304 92.1524L196.891 91.5654L197.478 90.9132C199.082 89.1605 200.851 87.5662 202.76 86.1523C202.728 85.9044 202.602 85.6784 202.407 85.5208C202.213 85.3631 201.966 85.2857 201.717 85.3045Z" fill="#A2A6E2"/>
<path d="M211.956 43.6958C213.782 42.3262 204.652 31.8915 214.695 31.6958C217.273 31.7273 219.812 32.3286 222.13 33.4567C223.891 34.3045 224.674 36.0654 226.304 37.4349C227.935 38.8045 230.869 40.3697 232.369 42.6523C233.869 44.9349 234.195 47.0871 235.108 49.4349C236.021 51.7828 236.935 52.3045 237.391 54.0654C237.848 55.8262 237.261 58.1741 237.13 60.1958C237 62.2175 237.195 65.0219 236.608 67.1089C235.969 69.4005 235.118 71.6275 234.065 73.761L227.217 69.3262C224.934 67.8262 222.913 65.4132 220.108 63.5871C218.413 62.5436 216 62.2175 214.239 61.1088C212.478 60.0002 210.848 57.6523 209.021 56.6089C207.195 55.5654 204.848 55.5002 203.282 54.3262C200.812 52.6297 198.706 50.4567 197.087 47.9349C195.326 44.8697 195.456 42.0654 197.804 39.9132C203.021 34.9567 210.065 45.0654 211.956 43.6958Z" fill="#A2A6E2"/>
<path d="M212.217 42.8479C214.153 43.9415 215.986 45.2075 217.695 46.6305C217.94 46.7673 218.16 46.9436 218.347 47.1523C218.592 47.289 218.812 47.4653 218.999 47.674L220.239 48.7827L221.412 49.8914L221.934 50.4783L222.521 51.0653C223.857 52.5056 225.099 54.0305 226.238 55.6305C227.282 57.1305 228.26 58.5653 229.043 59.9349C229.191 60.274 229.365 60.6011 229.565 60.9131L230.086 61.8914L230.934 63.7175C231.2 64.2265 231.439 64.7489 231.652 65.2827C231.847 65.8044 231.978 66.2609 232.173 66.6522L232.369 67.2392C232.442 67.4043 232.486 67.5808 232.499 67.761L232.76 68.5435C232.891 69.0001 232.956 69.2609 232.891 69.2609C232.825 69.2609 232.76 69.0653 232.565 68.6088L232.173 67.8914L231.978 67.3696L231.717 66.8479L231.13 65.5435C230.869 65.0218 230.608 64.5653 230.347 63.9783C230.086 63.3914 229.695 62.8696 229.369 62.2827C229.234 61.9575 229.059 61.6508 228.847 61.3696L228.26 60.3914C227.478 59.087 226.499 57.7175 225.391 56.2175C224.248 54.6819 223.006 53.2223 221.673 51.8479L221.152 51.2609L220.565 50.7392L219.456 49.6305L218.217 48.587L217.63 48.0653L216.978 47.5436C215.199 46.1409 213.3 44.897 211.304 43.8262C211.303 43.5776 211.397 43.3382 211.567 43.1565C211.736 42.9748 211.969 42.8645 212.217 42.8479Z" fill="#BEBAF7"/>
<path d="M190.173 64.1739C192 64.9565 192 62.2174 193.434 55.3695C194.739 49.5652 204.13 48.3261 206.282 55.0435C206.608 56.1522 205.956 57.3261 205.891 58.9565C205.826 60.5869 205.369 64.1087 203.804 66.3261C202.239 68.5435 200.478 68.7391 198.587 70.4347C196.695 72.1304 196.043 73.7608 194.282 74.8695C192.521 75.9782 190.695 75.913 189.065 76.7608C187.434 77.6087 186 79.1739 184.304 79.8913C182.608 80.6087 181.173 80.4782 179.934 81C178.695 81.5217 177.521 82.8261 176.413 83.2174C174.718 83.9089 172.893 84.2205 171.065 84.1304C170.658 82.4617 170.067 80.8431 169.304 79.3043C168.717 78 167.217 76.8913 166.76 75.3261C166.304 73.7608 167.021 72.0652 167.087 70.3695C167.152 68.6739 166.5 67.3043 166.956 65.8043C167.413 64.3043 169.043 63.1956 169.76 61.7608C170.478 60.3261 170.543 58.1739 171.587 56.8043C172.63 55.4348 174.391 55.5 175.239 54.6522C176.087 53.8043 176.413 51.913 177.521 51.2608C178.63 50.6087 180.587 50.9347 181.826 50.5434C183.065 50.1521 185.347 48.7174 186.847 48.913C190.826 49.3043 192.978 52.1087 192.978 55.1739C192.978 60.1304 188.347 63.3913 190.173 64.1739Z" fill="#A2A6E2"/>
<path d="M189.782 63.6523C180.456 73.3697 173.674 80.7392 173.935 81.0001C174.195 81.261 181.369 74.0218 190.695 64.3044C190.565 63.8479 190.304 63.5218 189.782 63.6523Z" fill="#BEBAF7"/>
<path d="M227.739 132.652C227.748 132.45 227.715 132.248 227.644 132.058C227.573 131.869 227.463 131.696 227.323 131.549C227.183 131.403 227.015 131.287 226.828 131.207C226.642 131.128 226.441 131.087 226.239 131.087C225.986 131.081 225.737 131.149 225.521 131.283C225.448 130.937 225.26 130.627 224.987 130.402C224.715 130.177 224.375 130.051 224.021 130.044C223.727 130.037 223.438 130.121 223.193 130.284C222.948 130.448 222.759 130.682 222.652 130.957C222.363 130.746 222.034 130.595 221.685 130.514C221.337 130.432 220.975 130.422 220.623 130.482C220.27 130.543 219.933 130.674 219.632 130.868C219.331 131.061 219.071 131.313 218.869 131.609C218.641 131.444 218.368 131.352 218.087 131.348C217.676 131.371 217.286 131.532 216.978 131.804C216.775 131.353 216.445 130.971 216.028 130.704C215.611 130.438 215.125 130.299 214.63 130.304C214.223 130.291 213.819 130.381 213.456 130.565C213.348 130.274 213.152 130.023 212.895 129.847C212.638 129.672 212.333 129.581 212.021 129.587L211.369 129.718C211.369 129.32 211.211 128.938 210.93 128.657C210.649 128.376 210.267 128.218 209.869 128.218C209.471 128.218 209.09 128.376 208.809 128.657C208.527 128.938 208.369 129.32 208.369 129.718C208.036 129.382 207.633 129.123 207.19 128.959C206.746 128.795 206.272 128.729 205.8 128.766C205.329 128.803 204.871 128.943 204.459 129.175C204.047 129.406 203.69 129.725 203.413 130.109C203.032 129.901 202.607 129.789 202.174 129.783C201.61 129.787 201.062 129.97 200.608 130.304C200.33 130.027 199.958 129.864 199.565 129.848C199.237 129.843 198.916 129.941 198.647 130.128C198.378 130.315 198.174 130.582 198.065 130.891H197.674C196.982 130.891 196.318 131.166 195.829 131.656C195.34 132.145 195.065 132.808 195.065 133.5V133.696V136.37H227.739V132.913V132.652Z" fill="#002A49"/>
<path d="M221.217 202.956H201.391C199.984 202.957 198.633 202.402 197.632 201.413C196.631 200.424 196.06 199.081 196.043 197.674H226.565C226.548 199.081 225.977 200.424 224.976 201.413C223.974 202.402 222.624 202.957 221.217 202.956Z" fill="#002A49"/>
<path d="M228.065 133.5H194.739C189.522 144.587 185.478 158.217 185.478 168.261C185.478 180.326 189.652 191.022 196.043 197.674H226.761C233.152 191.022 237.326 180.326 237.326 168.261C237.326 158.217 233.348 144.587 228.065 133.5Z" fill="#BEBAF7"/>
<path d="M109.565 89.3478C109.565 89.3478 110.413 88.2391 109.631 82.3695C108.848 76.5 104.804 65.4782 97.6306 59.5435C97.4349 62.6087 100.5 67.2391 100.5 67.2391C100.5 67.2391 103.891 71.5434 105.196 76.3695C106.5 81.1956 104.087 79.5652 104.087 79.5652C104.087 79.5652 107.609 89.6087 109.565 89.3478Z" fill="#BEBAF7"/>
<path d="M117.196 201.456C118.565 214.435 118.5 237.065 118.5 237.065H142.696C142.696 237.065 139.696 206.152 138.326 195.065C136.957 183.978 140.478 166.891 137.804 148.891C136.109 137.543 132.261 130.826 123 128.543C113.739 126.261 111.391 150.261 113.739 167.609C116.087 184.956 116.217 192.717 117.196 201.456Z" fill="#7451EB"/>
<path d="M18.3262 165.456C18.3262 165.456 19.0436 163.435 22.6957 162.717L62.9349 155.609C62.9349 155.609 86.674 240.326 87.1305 241.043C87.587 241.761 30.3914 247.239 30.3914 247.239L24.261 197.739L18.3262 165.456Z" fill="#002A49"/>
<path d="M20.8044 228.065C20.8044 228.065 19.9566 187.044 19.1087 176.348C18.2609 165.652 17.6087 165.261 19.1087 165.065C20.6087 164.87 21.8479 165.913 23.2174 173.478C24.587 181.044 30.6522 228.848 30.6522 240.522C30.6522 252.196 21.0653 242.739 21.0653 242.739L20.8044 228.065Z" fill="#003668"/>
<path d="M102.718 79.5652C102.718 79.5652 104.413 79.1087 105.587 79.8913C107.513 81.4801 108.864 83.6565 109.435 86.087C110.022 88.8913 109.109 93.8478 107.478 95.3478C105.848 96.8478 104.218 95.8044 103.891 94.0435C103.565 92.2826 101.674 80.7391 102.718 79.5652Z" fill="#A2A6E2"/>
<path d="M102.522 79.565C102.522 79.565 105 78.9129 106.37 86.2172C107.087 89.8694 107.413 95.5433 106.174 95.9998C104.935 96.4563 103.565 95.0215 102.978 90.7172C102.391 86.4129 101.283 79.6955 102.522 79.565Z" fill="#7451EB"/>
<path d="M100.565 82.1086C100.565 82.1086 101.152 80.4781 102.065 80.6738C102.978 80.8694 105 83.4781 105.652 86.9999C106.304 90.5216 106.5 95.2172 104.413 96.0651C102.326 96.9129 102 95.3477 101.283 93.5216C100.565 91.6955 99.5219 82.9564 100.565 82.1086Z" fill="#BEBAF7"/>
<path d="M50.2829 79.3695C50.2829 79.3695 54.522 97.3043 53.2177 105C51.9133 112.696 45.0003 118.826 44.8699 136.304C44.7394 153.783 97.5655 158.869 107.087 148.826C116.609 138.783 115.435 130.5 113.413 125.478C111.392 120.456 102.913 115.043 102.587 99.9782C102.261 84.913 89.9351 66.1956 73.8264 70.4999C57.7177 74.8043 50.2829 79.3695 50.2829 79.3695Z" fill="#003668"/>
<path d="M54.9781 129.522C54.9781 129.522 64.3694 125.087 65.6738 120.196C66.6022 116.493 67.2131 112.719 67.4999 108.913C67.4999 108.913 82.0434 99.5216 88.4999 100.826C94.9564 102.13 97.4999 109.565 97.4999 109.565C97.4999 109.565 96.9781 119.804 98.2825 120.587C99.5233 121.179 100.84 121.596 102.196 121.826C102.196 121.826 113.609 131.739 108.717 138.652C103.826 145.565 92.6086 150.978 78.326 148.174C64.0433 145.369 48.1303 137.674 54.9781 129.522Z" fill="#B77A62"/>
<path d="M89.283 131.022C94.5004 130.435 99.4569 123.652 98.283 120.587C97.9569 120.13 97.5656 118.696 97.5656 116.152C97.5656 113.609 67.3699 108.522 67.3699 108.522C67.3699 108.522 67.4351 110.283 66.2612 117.587C67.2395 119.87 75.6525 132.522 89.283 131.022Z" fill="#885541"/>
<path d="M102.587 76.1738C102.206 78.2872 102.206 80.4517 102.587 82.5651C103.239 85.826 105 92.8695 104.674 97.8912C104.217 104.087 100.761 110.087 98.9348 113.869C97.1087 117.652 95.0218 122.804 88.2392 123.391C81.4566 123.978 72.587 116.935 68.2174 112.696C63.8479 108.456 59.2827 103.956 58.0435 95.4129C56.8044 86.8695 56.2827 74.8695 60.4566 70.9564C64.6305 67.0434 72.5218 62.6086 81.6522 63.326C90.7827 64.0434 101.217 66.9782 102.587 76.1738Z" fill="#B77A62"/>
<path d="M60.1304 95.4782C60.1304 95.4782 61.2391 90.3912 61.6304 88.0434L62.0869 85.6956C62.0869 85.6956 64.5652 83.6738 65.2174 81.8477C69.5217 79.7608 73.3043 76.6956 72.4565 71.6086C74.9348 73.4347 78 73.8912 82.1739 73.826C86.3478 73.7608 93.3261 72.326 97.6956 75.2608C102.065 78.1956 102.391 80.6086 102.587 82.5651C102.587 82.5651 105.261 78.9782 104.739 71.8043C104.217 64.6304 102.065 56.2825 92.9348 50.9999C83.8043 45.7173 71.5435 45.6521 66.9782 52.8912C61.8261 54.5869 53.2174 63.6521 51.9782 70.2391C50.7391 76.826 50.4782 86.6086 52.6304 91.7608C54.7826 96.913 58.5652 99.326 60.1304 95.4782Z" fill="#003668"/>
<path d="M57.3869 103.834C60.5065 103.273 62.2649 98.536 61.3145 93.2541C60.3642 87.9721 57.0649 84.1453 53.9453 84.7066C50.8258 85.2679 49.0673 90.0048 50.0177 95.2867C50.968 100.569 54.2674 104.395 57.3869 103.834Z" fill="#BEBAF7"/>
<path d="M57.1306 99.913C57.1306 99.913 66.0002 106.174 68.6089 108.196C71.2176 110.217 73.6306 111.456 74.022 112.174C74.4133 112.891 74.2828 114.457 72.3263 114.065C70.3698 113.674 61.435 107.087 59.0872 105.391C56.7393 103.696 54.0654 101.609 54.0654 101.609C54.8601 100.912 55.4469 100.009 55.7611 99C55.9567 98.6087 57.1306 99.913 57.1306 99.913Z" fill="#BEBAF7"/>
<path d="M68.0221 111.717C67.9353 111.632 67.8664 111.531 67.8193 111.419C67.7723 111.307 67.748 111.187 67.748 111.065C67.748 110.944 67.7723 110.823 67.8193 110.711C67.8664 110.6 67.9353 110.498 68.0221 110.413C68.5438 109.63 69.4569 110.543 70.696 111.326C71.9351 112.109 74.1525 113.087 73.696 113.935C73.2395 114.783 72.7177 114.457 71.283 113.739C70.1292 113.179 69.0364 112.502 68.0221 111.717Z" fill="#7451EB"/>
<path d="M58.9563 123.391C58.9563 123.391 43.4345 132.261 40.0432 133.826C36.6519 135.391 23.9998 139.435 25.2389 149.804C26.478 160.174 45.8476 186.978 46.9563 200.348C48.065 213.717 47.5432 249.195 47.5432 249.195C47.5432 249.195 83.478 256.043 105.717 252.913C127.956 249.782 132.195 242.087 132.195 242.087C132.195 242.087 123.978 204.978 125.022 196.369C128.087 172.565 121.108 156.391 122.804 147.391C124.5 138.391 124.761 129.065 122.543 128.478C113.282 125.935 106.108 123.065 102.195 121.826C102.717 126.391 99.4563 136.369 86.0215 137.217C80.6808 137.581 75.3417 136.487 70.5747 134.051C65.8076 131.616 61.7918 127.932 58.9563 123.391Z" fill="#7451EB"/>
<path d="M56.6086 124.826C56.4781 124.631 57.652 122.87 59.0216 122.413C59.8481 122.144 60.7386 122.144 61.5651 122.413C61.5651 122.413 68.152 131.935 74.739 133.891C81.3259 135.848 91.5651 135.978 95.8042 131.217C100.043 126.457 100.696 123.978 100.369 121.37C100.956 120.783 103.696 120.522 104.935 122.674C105.391 123.391 104.413 128.804 99.8477 133.696C95.2825 138.587 86.8042 139.761 79.826 139.239C72.8477 138.717 64.4999 136.239 56.6086 124.826Z" fill="#474BB4"/>
<path d="M55.0557 102.337C57.289 101.935 58.4479 97.9886 57.6442 93.522C56.8406 89.0554 54.3786 85.7602 52.1453 86.1621C49.912 86.5639 48.7531 90.5106 49.5567 94.9772C50.3604 99.4438 52.8224 102.739 55.0557 102.337Z" fill="#A2A6E2"/>
<path d="M52.3996 99.8934C53.9001 99.7012 54.7974 97.0546 54.4038 93.9821C54.0102 90.9096 52.4748 88.5747 50.9743 88.7669C49.4737 88.9592 48.5764 91.6057 48.97 94.6782C49.3636 97.7507 50.8991 100.086 52.3996 99.8934Z" fill="#7451EB"/>
<path d="M49.2393 97.6303C49.2393 97.6303 49.9567 98.4781 51.0002 97.5651C52.0436 96.652 53.0219 91.239 52.1741 88.7607C51.3263 86.2825 51.4567 82.6955 51.7828 77.4781C52.3697 66.4564 54.4567 62.6086 63.0654 55.1086C64.3093 54.2675 65.6177 53.5261 66.9784 52.8912L69.261 50.2825C64.6028 51.2454 60.3618 53.6395 57.1306 57.1303C51.9132 62.9346 49.4349 68.4129 48.1958 77.2825C46.9567 86.152 47.8045 94.4347 49.2393 97.6303Z" fill="#BEBAF7"/>
<path d="M121.24 159.391C121.24 159.391 129.457 192.652 111.326 195.783C78.3265 201.522 45.7178 196.37 45.7178 196.37C45.7178 196.37 48.8482 230.087 46.3699 249.913C45.196 259.957 117.392 253.761 117.392 253.761L131.674 244.5C132.653 243.913 132.196 242.087 132.196 242.087C132.196 242.087 134.805 209.087 134.087 205.761C130.783 190.05 126.492 174.563 121.24 159.391Z" fill="#474BB4"/>
<path d="M113.087 155.413C113.012 153.845 112.362 152.359 111.261 151.239C110.255 150.254 108.942 149.645 107.54 149.515C106.139 149.384 104.735 149.74 103.565 150.522C103.37 150.652 103.37 150.652 103.5 150.848L105.196 152.869C105.326 153.065 105.457 153.065 105.652 153C106.1 152.769 106.599 152.658 107.102 152.676C107.605 152.694 108.095 152.841 108.524 153.103C108.954 153.365 109.309 153.733 109.556 154.172C109.802 154.61 109.932 155.105 109.932 155.609C109.932 156.112 109.802 156.607 109.556 157.046C109.309 157.484 108.954 157.852 108.524 158.114C108.095 158.376 107.605 158.523 107.102 158.541C106.599 158.559 106.1 158.448 105.652 158.217C105.619 158.195 105.581 158.181 105.542 158.176C105.503 158.17 105.462 158.174 105.425 158.187C105.387 158.199 105.352 158.22 105.324 158.248C105.296 158.276 105.274 158.31 105.261 158.348L103.5 160.369C103.37 160.565 103.37 160.63 103.565 160.761C104.786 161.538 106.233 161.883 107.674 161.739C109.195 161.531 110.586 160.772 111.584 159.606C112.582 158.44 113.117 156.948 113.087 155.413Z" fill="white"/>
<path d="M71.9348 69.9131C71.9348 69.9131 66.9131 51.3913 76.8261 47.4131C71.8696 47.8044 68.2827 50.2826 66.9131 52.8913C67.1087 54.8479 66.7174 58.5653 71.9348 69.9131Z" fill="#13458C"/>
<path d="M70.1085 70.4999C66.4671 67.9628 63.4916 64.5846 61.4346 60.6521C65.0215 67.8912 68.152 71.4782 69.3911 72.5217C70.6302 73.5652 71.8694 71.8043 70.1085 70.4999Z" fill="#13458C"/>
<path d="M78.3262 105.913C78.3262 105.913 81.1305 109.761 81.9131 111.065C82.6957 112.37 85.1088 114.326 88.8914 114C90.1985 113.932 91.4394 113.403 92.3943 112.508C93.3492 111.613 93.9566 110.409 94.1088 109.109C94.3696 107.543 95.1523 104.087 97.174 102.065C96.6523 102.391 92.1523 104.022 89.9349 103.957C88.831 104.477 87.5679 104.547 86.4131 104.152C85.4349 103.891 82.6305 105.065 76.8262 104.478C77.4161 104.853 77.926 105.34 78.3262 105.913Z" fill="#993333"/>
<path d="M68.0219 86.413C68.7393 85.7608 71.8698 83.5435 73.5002 83.5435C75.1306 83.5435 78.5219 83.8696 79.8263 83.7391C81.1306 83.6087 82.3697 83.4782 82.5654 83.8695C82.7611 84.2608 82.2393 84.6522 81.7828 84.9782C81.3263 85.3043 79.1741 85.6304 77.6741 85.5652C76.1741 85.5 74.6741 84.8478 72.6524 85.3696C70.6306 85.8913 66.0002 88.2391 68.0219 86.413Z" fill="#003668"/>
<path d="M90.0003 82.9565C89.2177 83.0217 89.4134 83.8043 90.5873 84.1956C91.6716 84.3338 92.7703 84.3118 93.8482 84.1304C94.8264 83.8695 97.0438 83.2173 98.0873 83.3478C99.2453 83.5028 100.357 83.903 101.348 84.5217C102.196 85.1739 102.457 85.0434 102.131 84.1956C101.799 83.5768 101.331 83.0415 100.761 82.6304C98.6742 81.3912 97.9568 81.326 96.5873 81.5869C95.2177 81.8478 92.8047 82.6956 90.0003 82.9565Z" fill="#003668"/>
<path d="M91.6959 89.8695C93.0131 90.5046 94.503 90.688 95.935 90.3912C97.8263 90.0651 100.044 89.0217 99.3915 87.6521C98.7393 86.2825 96.0002 86.6738 94.1741 87.326C92.348 87.9782 91.3698 89.1521 91.6959 89.8695Z" fill="white"/>
<path d="M93.131 88.3696C93.4601 88.9939 94.0228 89.4628 94.6962 89.6739C95.7397 89.9348 97.1745 89.087 96.9136 87.7826C96.6527 86.4783 92.9353 87.7174 93.131 88.3696Z" fill="#003668"/>
<path d="M71.9351 90.7826C71.9351 90.7826 73.4351 92.1521 76.5003 92.1521C79.5655 92.1521 81.0003 90.913 81.0003 90.7174C80.6688 90.1694 80.199 89.7183 79.6381 89.4093C79.0772 89.1002 78.4449 88.9441 77.8046 88.9565C75.9133 89.0217 71.9351 90 71.9351 90.7826Z" fill="white"/>
<path d="M74.3481 89.8043C74.4382 90.2765 74.6886 90.7032 75.057 91.0122C75.4254 91.3211 75.8891 91.4934 76.3699 91.4999C78.1307 91.4999 78.7829 89.4129 78.0003 89.0216C77.2177 88.6303 74.4786 89.3477 74.3481 89.8043Z" fill="#003668"/>
<path d="M77.3477 104.869C77.3477 104.869 81.3259 106.826 87.5216 106.304C93.7172 105.783 95.9346 103.696 95.9346 103.696L95.0216 105C93.3911 107.348 93.3911 110.283 88.1085 110.413C81.8477 110.543 80.9998 108.261 79.239 106.761C77.4781 105.261 77.3477 104.869 77.3477 104.869Z" fill="#003668"/>
<path d="M80.4131 105.848C80.4131 105.848 81.6522 107.282 82.4348 107.478C83.2174 107.674 86.6087 107.935 88.6305 107.739C90.1855 107.561 91.7036 107.143 93.1305 106.5C93.4886 105.999 93.7741 105.45 93.9783 104.869C91.8182 105.674 89.558 106.178 87.2609 106.369C84.9665 106.428 82.6722 106.253 80.4131 105.848Z" fill="white"/>
<path d="M91.1089 89.9349C91.2938 89.3482 91.534 88.7805 91.8263 88.2392C92.8045 86.4784 93.9132 85.2392 96.5219 85.3045C99.1306 85.3697 101.022 86.7392 101.87 86.8045C101.575 87.2436 101.16 87.5882 100.674 87.7965C100.188 88.0048 99.6518 88.068 99.1306 87.9784C97.6306 87.7827 97.3045 87.3262 95.7393 87.3262C95.1378 87.3396 94.5451 87.4734 93.9962 87.7199C93.4473 87.9663 92.9534 88.3203 92.5437 88.761C91.8263 89.4784 91.3045 90.1306 91.1089 89.9349Z" fill="#003668"/>
<path d="M68.4134 89.8043C68.3482 89.8043 70.0439 91.6956 71.9352 91.1087C73.8265 90.5217 75.0656 88.8913 76.9569 88.9565C78.3062 88.9852 79.6011 89.4939 80.6091 90.3913C81.1308 90.8478 81.6526 91.3695 81.6526 90.7174C81.6526 90.0652 80.87 89.6087 80.0221 88.6956C79.1743 87.7826 76.2395 86.4782 73.1091 87.8478C69.9786 89.2174 68.8047 89.9348 68.4134 89.8043Z" fill="#003668"/>
<path d="M83.8047 110.022C85.2426 110.719 86.8433 111.012 88.4351 110.869C90.8481 110.543 91.696 109.63 91.696 109.63L83.8047 110.022Z" fill="white"/>
<path d="M75.326 106.63C74.7812 105.809 74.5851 104.804 74.7808 103.838C74.9765 102.872 75.5479 102.023 76.3695 101.478C74.0217 102.065 72.1956 104.217 75.326 106.63Z" fill="#885541"/>
<path d="M96.522 99.4565C96.9931 99.5849 97.4342 99.8049 97.8203 100.104C98.2064 100.403 98.5298 100.775 98.772 101.199C99.0143 101.623 99.1706 102.09 99.2322 102.575C99.2937 103.059 99.2592 103.551 99.1307 104.022C100.5 102 99.6524 99.587 96.522 99.4565Z" fill="#885541"/>
<path d="M89.8696 85.239C89.674 88.6955 92.2174 93.9129 93.3261 95.5434C96.0001 99.5868 93.0001 99.5868 93.0001 99.5868C92.8864 100.416 92.4962 101.183 91.8926 101.763C91.2889 102.343 90.5072 102.702 89.674 102.782C85.4349 103.565 82.3696 98.9999 82.3696 98.9999C82.3696 98.9999 83.6088 100.761 85.1088 99.7825C85.1088 99.7825 89.5435 102.717 92.4131 99.2608C94.174 98.0868 92.674 96.3912 91.2392 92.8042C90.3545 90.3791 89.8913 87.8204 89.8696 85.239Z" fill="#885541"/>
<path d="M-224.805 255.783L464.869 150.13V385.304H-224.805V255.783Z" fill="#BEBAF7"/>
<path d="M207.424 242.655C245.035 237.236 275.025 229.374 274.409 225.096C273.792 220.818 242.803 221.743 205.192 227.163C167.581 232.583 137.591 240.445 138.207 244.723C138.824 249.001 169.813 248.075 207.424 242.655Z" fill="#A2A6E2"/>
<path d="M113.348 216.913L110.674 217.369L138.456 235.043L230.674 216.913L227.413 214.891L113.348 216.913Z" fill="#A2A6E2"/>
<path d="M50.3477 213.587C50.3477 213.587 62.2172 222.522 75.2607 222.456C81.5216 222.456 86.2825 221.087 84.4564 217.761C82.6303 214.435 74.6738 209.869 74.6738 209.869L50.3477 213.587Z" fill="#A2A6E2"/>
<path d="M44.8697 145.826C44.8697 145.826 40.6958 139.369 36.7175 138.391C32.7392 137.413 26.0871 139.369 23.3479 149.674C20.6088 159.978 28.9566 172.565 32.3479 177.456C35.7392 182.348 44.1523 195.456 51.9784 203.609C59.8045 211.761 69.9784 221.152 78.0653 221.152C86.1523 221.152 82.0436 206.478 75.9132 195.978C69.7827 185.478 63.5871 176.087 60.261 170.674C56.9349 165.261 54.3262 161.674 52.5001 157.826C50.3421 153.594 47.7872 149.576 44.8697 145.826Z" fill="#7451EB"/>
<path d="M49.7607 152.935L67.6303 181.435L64.1738 185.869C64.1738 185.869 55.1086 165.652 49.7607 152.935Z" fill="#474BB4"/>
<path d="M60.3916 152.217C60.6525 152.283 65.6742 157.174 70.696 156.652C75.7177 156.13 76.4351 152.869 76.4351 152.869C76.4351 152.869 84.4568 177.782 87.196 187.043C89.9351 196.304 89.9351 215.087 83.9351 219.522C77.9351 223.956 63.0655 217.369 62.2829 201.456C61.5003 185.543 63.5873 177.913 63.0655 169.826C62.6078 163.899 61.7141 158.013 60.3916 152.217Z" fill="#7451EB"/>
<path d="M61.6307 156.196C60.8416 155.777 60.237 155.08 59.935 154.239C59.4785 152.869 59.022 149.413 60.3916 148.565C61.7611 147.717 67.5655 146.739 69.8481 146.935C72.1307 147.13 75.0003 147.326 76.5003 149.869C78.0003 152.413 78.3264 155.413 77.935 156.261C77.5437 157.109 76.0437 157.826 73.5655 158.022C71.0872 158.217 65.6742 158.478 61.6307 156.196Z" fill="#474BB4"/>
<path d="M58.7609 143.609L61.2392 150.783C61.2392 150.783 62.2174 153 67.8914 153.587C71.674 153.978 75.3914 153.196 75.7174 150.717C75 147.652 73.8914 146.152 73.7609 143.087C73.6305 140.022 73.5001 136.63 71.2174 132.196C68.9348 127.761 63.3914 122.478 62.9348 121.696C62.4783 120.913 52.7609 117.391 51.3261 116.543C49.8914 115.696 49.2392 110.935 50.1522 108.848C51.0653 106.761 52.2392 102.717 52.2392 101.283C52.2392 99.8478 51.6522 98.8695 50.8044 98.9347C49.9566 98.9999 49.2392 100.109 48.8479 101.022C48.4566 101.935 45.6522 108.717 45.1957 109.891C44.7392 111.065 43.9566 113.217 44.4131 114.848C44.8696 116.478 46.3044 121.435 46.6957 123.783C47.087 126.13 47.1522 128.087 48.8479 130.174C50.5435 132.261 56.6087 137.543 58.7609 143.609Z" fill="#B77A62"/>
<path d="M48.7178 101.283C48.8931 101.391 49.1 101.437 49.3047 101.413C49.6308 101.348 50.4786 99.3912 50.6091 98.9347C50.7395 98.4782 49.5004 98.9999 48.7178 101.283Z" fill="#C69791"/>
<path d="M82.5656 186.522C84.3265 197.152 85.5656 222.913 67.6309 217.304C70.9569 219.391 76.7613 223.304 84.783 219.848C92.8048 216.391 90.5874 191.478 82.2396 170.413L77.6743 156.391C77.0187 157.118 76.1071 157.562 75.1309 157.63C78.3879 167.043 80.8744 176.706 82.5656 186.522Z" fill="#474BB4"/>
<path d="M51.3265 99.0652C51.5252 99.7958 51.5756 100.559 51.4748 101.309C51.374 102.06 51.124 102.782 50.7395 103.435C49.4352 105.978 48.3917 112.565 48.2613 113.413C48.1309 114.261 51.2613 117.913 51.2613 117.913C51.2613 117.913 51.0656 106.826 51.7178 104.283C52.37 101.739 52.7613 99.913 51.3265 99.0652Z" fill="#885541"/>
<path d="M47.5435 122.935C47.5435 122.935 46.5652 118.174 45.913 115.696C45.2609 113.217 44.5434 111.13 45.7174 109.5C46.8913 107.869 50.8696 103.304 52.1739 102.522C53.4782 101.739 58.5 99.652 59.2826 99.5868C60.0652 99.5216 60.9782 99.9129 60.6522 101.478C60.3261 103.043 58.8913 103.761 57.6522 104.282C56.413 104.804 51.913 109.5 51.3913 110.674C50.8695 111.848 52.6956 118.174 52.5 119.935C52.3043 121.696 49.5652 124.826 47.5435 122.935Z" fill="#B77A62"/>
<path d="M56.6738 100.5L57.2608 100.696C57.2608 100.696 59.4782 100.174 59.9999 99.652C60.5217 99.1303 58.239 99.5216 56.6738 100.5Z" fill="#C69791"/>
<path d="M56.5437 105.391C57.7176 104.674 60.9133 103.109 60.7176 100.891C59.2812 102.027 57.6745 102.93 55.9568 103.565C54.9133 104.022 53.3481 105.065 49.5002 109.435C47.935 111.195 48.2611 111.978 48.2611 111.978C48.522 113.152 50.1524 118.826 50.1524 118.826C50.1524 118.826 50.6089 111.261 51.2611 110.282C51.9133 109.304 56.5437 105.391 56.5437 105.391Z" fill="#885541"/>
<path d="M50.7394 121.239C50.7394 121.239 49.1089 115.043 48.8481 113.413C48.5872 111.783 48.7176 111 49.7611 109.826C50.8046 108.652 52.8263 106.109 54.2611 105.196C55.6959 104.283 58.9568 102.522 60.522 102.326C62.0872 102.13 63.9133 102.196 64.1089 103.239C64.3046 104.283 64.0437 105.391 62.6741 106.174C61.3046 106.957 59.4133 107.087 59.022 107.217C58.6307 107.348 56.6741 110.413 55.3046 111.587C55.8263 113.348 57.3263 120.065 57.1307 121.239C56.935 122.413 52.5655 124.239 50.7394 121.239Z" fill="#B77A62"/>
<path d="M59.3481 102.652L60.196 102.913C61.2704 102.835 62.3382 102.682 63.3916 102.456C63.9133 102.261 62.2177 101.935 61.3699 102.13L59.3481 102.652Z" fill="#C69791"/>
<path d="M64.174 103.696C64.174 103.696 60.587 105.652 58.3044 105.848C56.0218 107.674 55.1088 109.891 54.0001 110.869C52.8914 111.848 58.0436 122.478 58.0436 122.478C58.0436 122.478 55.5001 111.783 55.3696 111.587C55.2392 111.391 57.8479 108.652 58.3696 108C58.8914 107.348 59.087 107.283 59.087 107.283C59.087 107.283 61.8914 107.022 63.1305 105.978C63.466 105.702 63.7343 105.352 63.915 104.957C64.0958 104.562 64.1844 104.13 64.174 103.696Z" fill="#885541"/>
<path d="M57.1306 122.087C56.5683 120.442 56.2176 118.733 56.0871 117C56.0871 114.782 55.6958 112.63 56.4784 111.587C57.5503 110.006 58.704 108.482 59.9349 107.022C61.4923 106.103 63.1881 105.442 64.9566 105.065C66.261 105 66.7827 107.022 65.3479 108.456C63.9132 109.891 63.261 110.152 63.0001 110.152C62.7393 110.152 62.0871 113.087 61.8914 113.543C61.6958 114 62.9349 117.782 63.5219 118.63C64.1088 119.478 64.3045 120.913 64.9566 121.826C66.355 123.962 67.6183 126.184 68.7393 128.478C69.7827 130.761 62.1523 134.674 59.8045 129.522C57.4566 124.369 57.1306 122.087 57.1306 122.087Z" fill="#B77A62"/>
<path d="M62.2827 105.913C62.339 106.073 62.4457 106.21 62.5869 106.305C62.728 106.399 62.8959 106.444 63.0653 106.435C63.5983 106.44 64.128 106.351 64.6305 106.174C65.087 105.913 65.8044 105.326 65.6088 105.065C65.4131 104.804 63.1958 105.261 62.2827 105.913Z" fill="#C69791"/>
<path d="M73.8914 152.935C73.8914 152.935 72.3914 146.674 71.4784 144.326C70.5653 141.978 71.5436 136.565 67.3044 130.5C63.0653 124.435 60.3914 116.348 60.1305 114.326C59.8697 112.304 60.9131 110.152 61.4349 109.695C61.9566 109.239 65.674 108 66.1305 105.978C66.2328 106.372 66.2388 106.786 66.148 107.183C66.0572 107.58 65.8722 107.95 65.6088 108.261C65.3479 108.587 63.9131 110.022 63.1305 110.152C62.3479 110.282 62.0871 113.348 61.9566 113.608C62.3418 115.266 62.8878 116.883 63.5871 118.435C64.174 119.478 64.4349 120.652 64.8914 121.435C65.3479 122.217 68.3479 127.108 68.8045 128.282C69.261 129.456 72.5871 133.956 73.1088 136.565C73.5257 138.761 73.7873 140.984 73.8914 143.217C73.9477 144.527 74.1893 145.823 74.6088 147.065C75.0001 148.108 75.7175 150.717 75.7175 150.717C75.6811 151.231 75.4857 151.72 75.1585 152.117C74.8312 152.515 74.3884 152.8 73.8914 152.935Z" fill="#885541"/>
<path d="M112.108 216.848V215.022L229.761 213.848V215.674L138.652 233.543L112.108 216.848Z" fill="#E4E4F9"/>
<path d="M112.108 215.022L202.304 201.13L229.761 213.848L138.652 230.869L112.108 215.022Z" fill="white"/>
<path d="M260.347 197.804L139.108 218.413C138.261 218.53 137.398 218.457 136.581 218.202C135.765 217.946 135.015 217.512 134.385 216.933C133.756 216.353 133.262 215.642 132.94 214.849C132.618 214.056 132.475 213.202 132.521 212.348L137.217 121.37C137.298 120.067 137.83 118.833 138.723 117.88C139.616 116.928 140.813 116.317 142.108 116.152L266.999 100.304C267.855 100.204 268.721 100.296 269.537 100.572C270.352 100.849 271.095 101.303 271.714 101.903C272.332 102.502 272.809 103.231 273.11 104.038C273.411 104.844 273.53 105.707 273.456 106.565L265.043 192.783C264.963 194.034 264.451 195.219 263.595 196.135C262.738 197.051 261.591 197.641 260.347 197.804Z" fill="#A4FFFD"/>
<path d="M260.217 198.13L140.217 218.609C139.369 218.725 138.506 218.653 137.69 218.397C136.873 218.141 136.124 217.708 135.494 217.128C134.865 216.549 134.371 215.837 134.049 215.045C133.727 214.252 133.584 213.398 133.63 212.543L138.391 121.565C138.444 120.264 138.959 119.024 139.843 118.068C140.728 117.112 141.924 116.502 143.217 116.348L267.652 100.5C268.501 100.402 269.362 100.492 270.172 100.765C270.982 101.037 271.722 101.486 272.339 102.078C272.956 102.67 273.434 103.391 273.74 104.189C274.046 104.987 274.172 105.843 274.108 106.696L264.978 193.109C264.86 194.358 264.327 195.531 263.464 196.441C262.601 197.352 261.458 197.946 260.217 198.13Z" fill="#02C1B7"/>
<path d="M260.869 198.13L141.913 218.478C141.087 218.585 140.249 218.508 139.456 218.254C138.663 218 137.936 217.575 137.326 217.009C136.716 216.442 136.239 215.749 135.927 214.977C135.615 214.205 135.476 213.375 135.522 212.543C135.522 212.543 139.891 195.783 141.13 171.326C142.369 146.87 140.152 122.478 140.152 122.478C140.202 121.204 140.701 119.988 141.56 119.046C142.419 118.103 143.583 117.494 144.848 117.326L267.978 101.478C268.814 101.39 269.658 101.486 270.453 101.76C271.247 102.034 271.971 102.48 272.575 103.064C273.178 103.649 273.646 104.359 273.944 105.144C274.243 105.929 274.366 106.771 274.304 107.609C274.304 107.609 274.565 127.761 273 147.913C271.565 165.326 265.435 193.109 265.435 193.109C265.36 194.341 264.867 195.511 264.037 196.424C263.206 197.337 262.089 197.939 260.869 198.13Z" fill="#00F8F6"/>
<path d="M215.749 161.694C216.724 158.077 214.922 154.445 211.723 153.582C208.523 152.719 205.139 154.951 204.163 158.568C203.187 162.184 204.99 165.816 208.189 166.679C211.388 167.542 214.773 165.31 215.749 161.694Z" fill="#02C1B7"/>
<path d="M195.587 209.283L189.978 210.261L193.108 200.87C193.177 200.706 193.284 200.562 193.42 200.448C193.557 200.335 193.718 200.256 193.891 200.217L219.195 196.239C219.351 196.205 219.512 196.21 219.665 196.253C219.819 196.295 219.959 196.375 220.075 196.484C220.19 196.593 220.278 196.729 220.329 196.879C220.38 197.03 220.394 197.191 220.369 197.348L219.195 204.717L195.587 209.283Z" fill="#02C1B7"/>
<path d="M183.261 229.761L212.087 224.739L228 232.891L200.935 238.174L183.587 230.869L183.261 229.761Z" fill="#00F8F6"/>
<path d="M229.63 232.826L220.891 197.022L194.087 201.261C195.848 209.217 201.717 236.739 201.913 237.848C202.109 238.956 202.696 238.826 202.5 239.022H202.891L229.109 233.609C229.195 233.593 229.278 233.56 229.351 233.512C229.425 233.464 229.487 233.402 229.536 233.328C229.585 233.255 229.618 233.173 229.635 233.087C229.651 233.001 229.649 232.912 229.63 232.826Z" fill="#00F8F6"/>
<path d="M202.761 237.848C202.63 236.739 196.826 210.652 194.935 201.913C194.888 201.712 194.77 201.534 194.602 201.414C194.433 201.294 194.227 201.24 194.022 201.261C193.911 201.276 193.806 201.314 193.711 201.373C193.617 201.431 193.536 201.51 193.474 201.602C193.413 201.695 193.371 201.8 193.353 201.909C193.335 202.019 193.341 202.132 193.369 202.239C194.543 207.261 200.478 233.087 200.478 235.304C200.478 237.522 198.652 236.609 198.391 236.413H198.326L183.587 229.891C183.488 229.848 183.381 229.83 183.274 229.839C183.167 229.847 183.064 229.882 182.973 229.94C182.883 229.998 182.808 230.078 182.756 230.172C182.704 230.266 182.676 230.371 182.674 230.478C182.674 230.739 182.804 231 183.391 231.261L200.543 238.956C201.012 239.172 201.535 239.241 202.043 239.152C202.202 239.148 202.355 239.096 202.483 239.003C202.611 238.91 202.708 238.78 202.761 238.63C202.8 238.371 202.8 238.107 202.761 237.848Z" fill="#02C1B7"/>
</g>
<path d="M239.5 120C239.5 185.998 185.998 239.5 120 239.5C54.002 239.5 0.5 185.998 0.5 120C0.5 54.002 54.002 0.5 120 0.5C185.998 0.5 239.5 54.002 239.5 120Z" stroke="#E0E0E0"/>
</svg>
